<?xml version="1.0" encoding="utf-8"?>
<svg version="1.1" xmlns:xlink="http://www.w3.org/1999/xlink" width="100px" height="100px" xmlns="http://www.w3.org/2000/svg">
  <g transform="matrix(1 0 0 1 -150 -20 )">
    <path d="M 150 20  L 250 20  L 250 120  L 150 120  L 150 20  " fill-rule="nonzero" fill="#cccccc" stroke="none" />
    <path d="M 157 27  L 243 27  L 243 113  L 157 113  L 157 27  " fill-rule="nonzero" fill="#ffffff" stroke="none" />
    <path d="M 209.5 50  C 205.3 50  202 46.7  202 42.5  C 202 38.3  205.3 35  209.5 35  C 213.7 35  217 38.3  217 42.5  C 217 46.7  213.7 50  209.5 50  " fill-rule="nonzero" fill="#cccccc" stroke="none" />
    <path d="M 160 111  L 160 66.45  L 180.25 46.2  L 208.6 62.4  L 224.8 58.35  L 241 62.4  L 241 111  L 160 111  " fill-rule="nonzero" fill="#169bd5" stroke="none" />
  </g>
</svg>